<mxfile host="Electron" agent="Mozilla/5.0 (X11; Linux x86_64) AppleWebKit/537.36 (KHTML, like Gecko) draw.io/28.1.2 Chrome/138.0.7204.243 Electron/37.4.0 Safari/537.36" version="28.1.2">
  <diagram name="第 1 页" id="A2wYnKDMZFF023bxGnZ8">
    <mxGraphModel dx="2253" dy="822" grid="1" gridSize="10" guides="1" tooltips="1" connect="1" arrows="1" fold="1" page="1" pageScale="1" pageWidth="827" pageHeight="1169" math="0" shadow="0">
      <root>
        <mxCell id="0" />
        <mxCell id="1" parent="0" />
        <mxCell id="qlxX7Fygw9MmZmLqK2NQ-1" value="SpringApplication" style="shape=umlLifeline;perimeter=lifelinePerimeter;whiteSpace=wrap;html=1;container=1;dropTarget=0;collapsible=0;recursiveResize=0;outlineConnect=0;portConstraint=eastwest;newEdgeStyle={&quot;curved&quot;:0,&quot;rounded&quot;:0};fontSize=20;fillColor=#dae8fc;strokeColor=#6c8ebf;strokeWidth=2;fontStyle=1;fontColor=#FF0000;" parent="1" vertex="1">
          <mxGeometry x="217" y="168" width="260" height="1262" as="geometry" />
        </mxCell>
        <mxCell id="tHCy42ypWK_uThyhraDl-2" value="" style="html=1;whiteSpace=wrap;fontSize=20;fillColor=#dae8fc;strokeColor=#6c8ebf;" parent="1" vertex="1">
          <mxGeometry x="-20" y="290" width="770" height="1510" as="geometry" />
        </mxCell>
        <mxCell id="tHCy42ypWK_uThyhraDl-4" value="EventPublishingRunListener" style="shape=umlLifeline;perimeter=lifelinePerimeter;whiteSpace=wrap;html=1;container=1;dropTarget=0;collapsible=0;recursiveResize=0;outlineConnect=0;portConstraint=eastwest;newEdgeStyle={&quot;curved&quot;:0,&quot;rounded&quot;:0};fontSize=20;fillColor=#dae8fc;strokeColor=#6c8ebf;strokeWidth=2;" parent="1" vertex="1">
          <mxGeometry x="962" y="168" width="300" height="2082" as="geometry" />
        </mxCell>
        <mxCell id="tHCy42ypWK_uThyhraDl-10" value="构造方法()：加载META-INF/spring.factories中ApplicationContextInitializer和ApplicationListener&lt;div&gt;&lt;br&gt;&lt;/div&gt;" style="html=1;whiteSpace=wrap;fontSize=20;fillColor=#dae8fc;strokeColor=#6c8ebf;verticalAlign=top;" parent="1" vertex="1">
          <mxGeometry x="56.99" y="333" width="573.01" height="187" as="geometry" />
        </mxCell>
        <mxCell id="tHCy42ypWK_uThyhraDl-15" value="&lt;span style=&quot;font-size: 20px;&quot;&gt;run()&lt;/span&gt;" style="text;html=1;align=center;verticalAlign=middle;whiteSpace=wrap;rounded=0;" parent="1" vertex="1">
          <mxGeometry x="287" y="283" width="120" height="50" as="geometry" />
        </mxCell>
        <mxCell id="tHCy42ypWK_uThyhraDl-20" value="ApplicationStartingEvent（发布应用启动事件）" style="html=1;whiteSpace=wrap;fontSize=20;fillColor=#dae8fc;strokeColor=#6c8ebf;" parent="1" vertex="1">
          <mxGeometry x="887" y="805" width="450" height="35" as="geometry" />
        </mxCell>
        <mxCell id="tHCy42ypWK_uThyhraDl-25" value="createApplicationContext()：返回AnnotationConfigApplicationContext" style="html=1;whiteSpace=wrap;fontSize=20;fillColor=#dae8fc;strokeColor=#6c8ebf;verticalAlign=top;" parent="1" vertex="1">
          <mxGeometry x="15.99" y="910" width="655" height="150" as="geometry" />
        </mxCell>
        <mxCell id="tHCy42ypWK_uThyhraDl-26" value="new ClassPathBeanDefinitionScanner()" style="html=1;whiteSpace=wrap;fontSize=20;fillColor=#dae8fc;strokeColor=#6c8ebf;strokeWidth=0;" parent="1" vertex="1">
          <mxGeometry x="143.42000000000002" y="1005" width="411.89" height="35" as="geometry" />
        </mxCell>
        <mxCell id="tHCy42ypWK_uThyhraDl-27" value="创建DefaultBootstrapContext" style="html=1;whiteSpace=wrap;fontSize=20;fillColor=#dae8fc;strokeColor=#6c8ebf;" parent="1" vertex="1">
          <mxGeometry x="199.21" y="549" width="277.79" height="35" as="geometry" />
        </mxCell>
        <mxCell id="tHCy42ypWK_uThyhraDl-28" value="&lt;div&gt;涉及以下模块：&lt;/div&gt;&lt;div&gt;spring-boot，&lt;/div&gt;&lt;div&gt;spring-boot-autoconfigure，&lt;/div&gt;&lt;div&gt;dubbo-spring-boot&lt;/div&gt;" style="html=1;whiteSpace=wrap;fontSize=20;fillColor=#dae8fc;strokeColor=#6c8ebf;strokeWidth=0;align=left;verticalAlign=top;" parent="1" vertex="1">
          <mxGeometry x="68.11" y="400" width="540" height="110" as="geometry" />
        </mxCell>
        <mxCell id="tHCy42ypWK_uThyhraDl-29" value="发布事件" style="html=1;whiteSpace=wrap;fontSize=20;fillColor=#dae8fc;strokeColor=#6c8ebf;" parent="1" vertex="1">
          <mxGeometry x="199.21000000000015" y="805" width="300.32" height="35" as="geometry" />
        </mxCell>
        <mxCell id="tHCy42ypWK_uThyhraDl-45" value="配置Headless模式：无图形界面环境正常运行" style="html=1;whiteSpace=wrap;fontSize=20;fillColor=#dae8fc;strokeColor=#6c8ebf;" parent="1" vertex="1">
          <mxGeometry x="105.78999999999999" y="611" width="475.4" height="35" as="geometry" />
        </mxCell>
        <mxCell id="ymltCve2k1oxN2BTnrI2-4" value="构造方法()：加载META-INF/spring.factories中SpringApplicationRunListener&lt;div&gt;&lt;br&gt;&lt;/div&gt;" style="html=1;whiteSpace=wrap;fontSize=20;fillColor=#dae8fc;strokeColor=#6c8ebf;verticalAlign=top;" parent="1" vertex="1">
          <mxGeometry x="60.5" y="668" width="573.01" height="112" as="geometry" />
        </mxCell>
        <mxCell id="ymltCve2k1oxN2BTnrI2-5" value="&lt;div&gt;涉及模块：&lt;span style=&quot;background-color: transparent; color: light-dark(rgb(0, 0, 0), rgb(255, 255, 255));&quot;&gt;spring-boot&lt;/span&gt;&lt;/div&gt;" style="html=1;whiteSpace=wrap;fontSize=20;fillColor=#dae8fc;strokeColor=#6c8ebf;strokeWidth=0;align=left;" parent="1" vertex="1">
          <mxGeometry x="80" y="728.5" width="540" height="31.5" as="geometry" />
        </mxCell>
        <mxCell id="ymltCve2k1oxN2BTnrI2-6" value="" style="endArrow=classic;html=1;rounded=0;exitX=1;exitY=0.5;exitDx=0;exitDy=0;entryX=0;entryY=0.5;entryDx=0;entryDy=0;" parent="1" source="tHCy42ypWK_uThyhraDl-29" target="tHCy42ypWK_uThyhraDl-20" edge="1">
          <mxGeometry width="50" height="50" relative="1" as="geometry">
            <mxPoint x="650" y="1060" as="sourcePoint" />
            <mxPoint x="700" y="1010" as="targetPoint" />
          </mxGeometry>
        </mxCell>
        <mxCell id="ymltCve2k1oxN2BTnrI2-8" value="发布事件" style="html=1;whiteSpace=wrap;fontSize=20;fillColor=#dae8fc;strokeColor=#6c8ebf;" parent="1" vertex="1">
          <mxGeometry x="199.84" y="860" width="300.32" height="35" as="geometry" />
        </mxCell>
        <mxCell id="ymltCve2k1oxN2BTnrI2-9" value="ApplicationEnvironmentPreparedEvent（环境准备就绪事件）" style="html=1;whiteSpace=wrap;fontSize=20;fillColor=#dae8fc;strokeColor=#6c8ebf;" parent="1" vertex="1">
          <mxGeometry x="808" y="860" width="610" height="35" as="geometry" />
        </mxCell>
        <mxCell id="ymltCve2k1oxN2BTnrI2-10" value="" style="endArrow=classic;html=1;rounded=0;exitX=1;exitY=0.5;exitDx=0;exitDy=0;" parent="1" source="ymltCve2k1oxN2BTnrI2-8" target="ymltCve2k1oxN2BTnrI2-9" edge="1">
          <mxGeometry width="50" height="50" relative="1" as="geometry">
            <mxPoint x="500" y="950" as="sourcePoint" />
            <mxPoint x="550" y="900" as="targetPoint" />
          </mxGeometry>
        </mxCell>
        <mxCell id="ymltCve2k1oxN2BTnrI2-12" value="AnnotationConfigUtils" style="shape=umlLifeline;perimeter=lifelinePerimeter;whiteSpace=wrap;html=1;container=1;dropTarget=0;collapsible=0;recursiveResize=0;outlineConnect=0;portConstraint=eastwest;newEdgeStyle={&quot;curved&quot;:0,&quot;rounded&quot;:0};fontSize=20;fillColor=#dae8fc;strokeColor=#6c8ebf;strokeWidth=2;" parent="1" vertex="1">
          <mxGeometry x="1610" y="168" width="300" height="2012" as="geometry" />
        </mxCell>
        <mxCell id="ymltCve2k1oxN2BTnrI2-13" value="" style="endArrow=classic;html=1;rounded=0;exitX=1;exitY=0.5;exitDx=0;exitDy=0;entryX=0;entryY=0.5;entryDx=0;entryDy=0;" parent="1" source="ymltCve2k1oxN2BTnrI2-17" target="ymltCve2k1oxN2BTnrI2-14" edge="1">
          <mxGeometry width="50" height="50" relative="1" as="geometry">
            <mxPoint x="940" y="1050" as="sourcePoint" />
            <mxPoint x="1460" y="928" as="targetPoint" />
          </mxGeometry>
        </mxCell>
        <mxCell id="ymltCve2k1oxN2BTnrI2-14" value="&lt;div&gt;&lt;b&gt;&lt;font style=&quot;color: rgb(255, 0, 0);&quot;&gt;registerAnnotationConfigProcessors()&lt;/font&gt;&lt;/b&gt;&lt;/div&gt;" style="html=1;whiteSpace=wrap;fontSize=20;fillColor=#dae8fc;strokeColor=#6c8ebf;verticalAlign=top;" parent="1" vertex="1">
          <mxGeometry x="1473.5" y="834.5" width="573.01" height="261.5" as="geometry" />
        </mxCell>
        <mxCell id="tHCy42ypWK_uThyhraDl-24" value="注册基础设施：&lt;div&gt;AnnotationAwareOrderComparator&lt;/div&gt;&lt;div&gt;ContextAnnotationAutowireCandidateResolver&lt;br&gt;&lt;div&gt;&lt;b&gt;ConfigurationClassPostProcessor&lt;/b&gt;&lt;/div&gt;&lt;div&gt;&lt;b&gt;AutowiredAnnotationBeanPostProcessor&lt;/b&gt;&lt;/div&gt;&lt;div&gt;&lt;b&gt;CommonAnnotationBeanPostProcessor&lt;/b&gt;&lt;/div&gt;&lt;div&gt;&lt;b&gt;EventListenerMethodProcessor&lt;/b&gt;&lt;/div&gt;&lt;div&gt;DefaultEventListenerFactory&lt;/div&gt;&lt;/div&gt;" style="html=1;whiteSpace=wrap;fontSize=20;fillColor=#dae8fc;strokeColor=#6c8ebf;strokeWidth=1;align=left;verticalAlign=top;" parent="1" vertex="1">
          <mxGeometry x="1490" y="870" width="540" height="206" as="geometry" />
        </mxCell>
        <mxCell id="ymltCve2k1oxN2BTnrI2-17" value="&lt;font style=&quot;color: rgb(255, 0, 0);&quot;&gt;new AnnotatedBeanDefinitionReader()&lt;/font&gt;" style="html=1;whiteSpace=wrap;fontSize=20;fillColor=#dae8fc;strokeColor=#6c8ebf;strokeWidth=0;fontStyle=0" parent="1" vertex="1">
          <mxGeometry x="142.55" y="950" width="411.89" height="35" as="geometry" />
        </mxCell>
        <mxCell id="ymltCve2k1oxN2BTnrI2-18" value="准备应用上下文：调用ApplicationContextInitializer中initialize方法" style="html=1;whiteSpace=wrap;fontSize=20;fillColor=#dae8fc;strokeColor=#6c8ebf;" parent="1" vertex="1">
          <mxGeometry x="43.019999999999996" y="1090" width="612.7" height="35" as="geometry" />
        </mxCell>
        <mxCell id="ymltCve2k1oxN2BTnrI2-19" value="发布事件" style="html=1;whiteSpace=wrap;fontSize=20;fillColor=#dae8fc;strokeColor=#6c8ebf;" parent="1" vertex="1">
          <mxGeometry x="187.94" y="1160" width="300.32" height="35" as="geometry" />
        </mxCell>
        <mxCell id="ymltCve2k1oxN2BTnrI2-20" value="ApplicationContextInitializedEvent（上下文准备就绪事件）" style="html=1;whiteSpace=wrap;fontSize=20;fillColor=#dae8fc;strokeColor=#6c8ebf;" parent="1" vertex="1">
          <mxGeometry x="808" y="1160" width="610" height="35" as="geometry" />
        </mxCell>
        <mxCell id="ymltCve2k1oxN2BTnrI2-21" value="" style="endArrow=classic;html=1;rounded=0;exitX=1;exitY=0.5;exitDx=0;exitDy=0;entryX=0;entryY=0.5;entryDx=0;entryDy=0;" parent="1" source="ymltCve2k1oxN2BTnrI2-19" target="ymltCve2k1oxN2BTnrI2-20" edge="1">
          <mxGeometry width="50" height="50" relative="1" as="geometry">
            <mxPoint x="780" y="1290" as="sourcePoint" />
            <mxPoint x="830" y="1240" as="targetPoint" />
          </mxGeometry>
        </mxCell>
        <mxCell id="ymltCve2k1oxN2BTnrI2-22" value="注册bean定义：项目启动类" style="html=1;whiteSpace=wrap;fontSize=20;fillColor=#dae8fc;strokeColor=#6c8ebf;" parent="1" vertex="1">
          <mxGeometry x="109.30000000000001" y="1230" width="475.4" height="35" as="geometry" />
        </mxCell>
        <mxCell id="ymltCve2k1oxN2BTnrI2-23" value="发布事件" style="html=1;whiteSpace=wrap;fontSize=20;fillColor=#dae8fc;strokeColor=#6c8ebf;" parent="1" vertex="1">
          <mxGeometry x="190" y="1300" width="300.32" height="35" as="geometry" />
        </mxCell>
        <mxCell id="ymltCve2k1oxN2BTnrI2-24" value="ApplicationPreparedEvent（Spring应用上下文已准备就绪）" style="html=1;whiteSpace=wrap;fontSize=20;fillColor=#dae8fc;strokeColor=#6c8ebf;" parent="1" vertex="1">
          <mxGeometry x="810.06" y="1300" width="610" height="35" as="geometry" />
        </mxCell>
        <mxCell id="ymltCve2k1oxN2BTnrI2-25" value="" style="endArrow=classic;html=1;rounded=0;exitX=1;exitY=0.5;exitDx=0;exitDy=0;entryX=0;entryY=0.5;entryDx=0;entryDy=0;" parent="1" source="ymltCve2k1oxN2BTnrI2-23" target="ymltCve2k1oxN2BTnrI2-24" edge="1">
          <mxGeometry width="50" height="50" relative="1" as="geometry">
            <mxPoint x="782.06" y="1430" as="sourcePoint" />
            <mxPoint x="832.06" y="1380" as="targetPoint" />
          </mxGeometry>
        </mxCell>
        <mxCell id="ymltCve2k1oxN2BTnrI2-26" value="&lt;div&gt;&lt;b&gt;&lt;font style=&quot;color: rgb(255, 0, 0);&quot;&gt;refreshContext()&lt;/font&gt;&lt;/b&gt;&lt;/div&gt;" style="html=1;whiteSpace=wrap;fontSize=20;fillColor=#dae8fc;strokeColor=#6c8ebf;verticalAlign=top;" parent="1" vertex="1">
          <mxGeometry x="61.99" y="1380" width="573.01" height="40" as="geometry" />
        </mxCell>
        <mxCell id="ymltCve2k1oxN2BTnrI2-27" value="AbstractApplicationContext" style="shape=umlLifeline;perimeter=lifelinePerimeter;whiteSpace=wrap;html=1;container=1;dropTarget=0;collapsible=0;recursiveResize=0;outlineConnect=0;portConstraint=eastwest;newEdgeStyle={&quot;curved&quot;:0,&quot;rounded&quot;:0};fontSize=20;fillColor=#dae8fc;strokeColor=#6c8ebf;strokeWidth=2;fontStyle=1;fontColor=#FF0000;" parent="1" vertex="1">
          <mxGeometry x="2170" y="160" width="300" height="1910" as="geometry" />
        </mxCell>
        <mxCell id="ymltCve2k1oxN2BTnrI2-28" value="&lt;div&gt;&lt;span style=&quot;background-color: transparent;&quot;&gt;&lt;font color=&quot;#ff0000&quot;&gt;&lt;b&gt;refresh()&lt;/b&gt;&lt;/font&gt;&lt;/span&gt;&lt;/div&gt;" style="html=1;whiteSpace=wrap;fontSize=20;fillColor=#dae8fc;strokeColor=#6c8ebf;verticalAlign=top;" parent="1" vertex="1">
          <mxGeometry x="2033.49" y="1378" width="573.01" height="40" as="geometry" />
        </mxCell>
        <mxCell id="ymltCve2k1oxN2BTnrI2-29" value="" style="endArrow=classic;html=1;rounded=0;exitX=1;exitY=0.5;exitDx=0;exitDy=0;entryX=0;entryY=0.5;entryDx=0;entryDy=0;" parent="1" source="ymltCve2k1oxN2BTnrI2-26" target="ymltCve2k1oxN2BTnrI2-28" edge="1">
          <mxGeometry width="50" height="50" relative="1" as="geometry">
            <mxPoint x="980" y="1470" as="sourcePoint" />
            <mxPoint x="1030" y="1420" as="targetPoint" />
          </mxGeometry>
        </mxCell>
        <mxCell id="ymltCve2k1oxN2BTnrI2-30" value="发布事件" style="html=1;whiteSpace=wrap;fontSize=20;fillColor=#dae8fc;strokeColor=#6c8ebf;" parent="1" vertex="1">
          <mxGeometry x="187.94000000000005" y="1470" width="300.32" height="35" as="geometry" />
        </mxCell>
        <mxCell id="ymltCve2k1oxN2BTnrI2-31" value="ApplicationStartedEvent（应用启动完成事件）" style="html=1;whiteSpace=wrap;fontSize=20;fillColor=#dae8fc;strokeColor=#6c8ebf;" parent="1" vertex="1">
          <mxGeometry x="808" y="1470" width="610" height="35" as="geometry" />
        </mxCell>
        <mxCell id="ymltCve2k1oxN2BTnrI2-32" value="" style="endArrow=classic;html=1;rounded=0;exitX=1;exitY=0.5;exitDx=0;exitDy=0;entryX=0;entryY=0.5;entryDx=0;entryDy=0;" parent="1" source="ymltCve2k1oxN2BTnrI2-30" target="ymltCve2k1oxN2BTnrI2-31" edge="1">
          <mxGeometry width="50" height="50" relative="1" as="geometry">
            <mxPoint x="780" y="1600" as="sourcePoint" />
            <mxPoint x="830" y="1550" as="targetPoint" />
          </mxGeometry>
        </mxCell>
        <mxCell id="ymltCve2k1oxN2BTnrI2-33" value="发布事件" style="html=1;whiteSpace=wrap;fontSize=20;fillColor=#dae8fc;strokeColor=#6c8ebf;" parent="1" vertex="1">
          <mxGeometry x="187.94000000000005" y="1550" width="300.32" height="35" as="geometry" />
        </mxCell>
        <mxCell id="ymltCve2k1oxN2BTnrI2-34" value="AvailabilityChangeEvent（应用状态变更事件：应用已存活）" style="html=1;whiteSpace=wrap;fontSize=20;fillColor=#dae8fc;strokeColor=#6c8ebf;" parent="1" vertex="1">
          <mxGeometry x="808" y="1550" width="610" height="35" as="geometry" />
        </mxCell>
        <mxCell id="ymltCve2k1oxN2BTnrI2-35" value="" style="endArrow=classic;html=1;rounded=0;exitX=1;exitY=0.5;exitDx=0;exitDy=0;entryX=0;entryY=0.5;entryDx=0;entryDy=0;" parent="1" source="ymltCve2k1oxN2BTnrI2-33" target="ymltCve2k1oxN2BTnrI2-34" edge="1">
          <mxGeometry width="50" height="50" relative="1" as="geometry">
            <mxPoint x="780" y="1680" as="sourcePoint" />
            <mxPoint x="830" y="1630" as="targetPoint" />
          </mxGeometry>
        </mxCell>
        <mxCell id="ymltCve2k1oxN2BTnrI2-36" value="发布事件" style="html=1;whiteSpace=wrap;fontSize=20;fillColor=#dae8fc;strokeColor=#6c8ebf;" parent="1" vertex="1">
          <mxGeometry x="187.94000000000005" y="1620" width="300.32" height="35" as="geometry" />
        </mxCell>
        <mxCell id="ymltCve2k1oxN2BTnrI2-37" value="ApplicationReadyEvent（应用就绪事件）" style="html=1;whiteSpace=wrap;fontSize=20;fillColor=#dae8fc;strokeColor=#6c8ebf;" parent="1" vertex="1">
          <mxGeometry x="808" y="1620" width="610" height="35" as="geometry" />
        </mxCell>
        <mxCell id="ymltCve2k1oxN2BTnrI2-38" value="" style="endArrow=classic;html=1;rounded=0;exitX=1;exitY=0.5;exitDx=0;exitDy=0;entryX=0;entryY=0.5;entryDx=0;entryDy=0;" parent="1" source="ymltCve2k1oxN2BTnrI2-36" target="ymltCve2k1oxN2BTnrI2-37" edge="1">
          <mxGeometry width="50" height="50" relative="1" as="geometry">
            <mxPoint x="780" y="1750" as="sourcePoint" />
            <mxPoint x="830" y="1700" as="targetPoint" />
          </mxGeometry>
        </mxCell>
        <mxCell id="ymltCve2k1oxN2BTnrI2-39" value="发布事件" style="html=1;whiteSpace=wrap;fontSize=20;fillColor=#dae8fc;strokeColor=#6c8ebf;" parent="1" vertex="1">
          <mxGeometry x="187.94" y="1690" width="300.32" height="35" as="geometry" />
        </mxCell>
        <mxCell id="ymltCve2k1oxN2BTnrI2-40" value="AvailabilityChangeEvent（应用状态变更事件：应用已就绪）" style="html=1;whiteSpace=wrap;fontSize=20;fillColor=#dae8fc;strokeColor=#6c8ebf;" parent="1" vertex="1">
          <mxGeometry x="808" y="1690" width="610" height="35" as="geometry" />
        </mxCell>
        <mxCell id="ymltCve2k1oxN2BTnrI2-41" value="" style="endArrow=classic;html=1;rounded=0;exitX=1;exitY=0.5;exitDx=0;exitDy=0;entryX=0;entryY=0.5;entryDx=0;entryDy=0;" parent="1" source="ymltCve2k1oxN2BTnrI2-39" target="ymltCve2k1oxN2BTnrI2-40" edge="1">
          <mxGeometry width="50" height="50" relative="1" as="geometry">
            <mxPoint x="780" y="1820" as="sourcePoint" />
            <mxPoint x="830" y="1770" as="targetPoint" />
          </mxGeometry>
        </mxCell>
      </root>
    </mxGraphModel>
  </diagram>
</mxfile>
